# xmcd
#
# Track frame offsets:
#	150
#	11991
#	23595
#	31255
#	40794
#	56054
#	63992
#	72769
#	82933
#	92756
#	100195
#	107925
#	118265
#	127279
#	135864
#	145883
#	156572
#	168209
#	177550
#	187077
#	197685
#
# Disc length: 2758 seconds
#
# Revision: 6
# Processed by: cddbd v1.5.2PL0 Copyright (c) Steve Scherf et al.
# Submitted via: EasyCDDAExtractor 10.0.2.1
#
DISCID=2b0ac415
DTITLE=Cash, Johnny - The Complete Sun Recordings 1955-1958 Disc 3
DYEAR=2005
DGENRE=Country
TTITLE0=You're the Nearest Thing to Heaven
TTITLE1=The Story of a Broken Heart (Includes False Start)
TTITLE2=Sugartime
TTITLE3=Born to Lose
TTITLE4=Always Alone (Includes False Starts)
TTITLE5=You Tell Me (Includes False Sstart)
TTITLE6=Life Goes On
TTITLE7=You Win Again
TTITLE8=I Could Never Be Ashamed of You
TTITLE9=Hey, Good Lookin'
TTITLE10=I Can't Help It (If I'm Still in Love with You)
TTITLE11=Cold, Cold Heart
TTITLE12=Blue Train
TTITLE13=Katy Too
TTITLE14=The Ways of a Woman in Love
TTITLE15=Fools Hall of Fame
TTITLE16=Thanks a Lot
TTITLE17=It's Just About Time
TTITLE18=I Forgot to Remember to Forget
TTITLE19=I Just Thought You'd Like to Know
TTITLE20=Down the Street to 301
EXTD=YEAR: 2005
EXTT0=
EXTT1=
EXTT2=
EXTT3=
EXTT4=
EXTT5=
EXTT6=
EXTT7=
EXTT8=
EXTT9=
EXTT10=
EXTT11=
EXTT12=
EXTT13=
EXTT14=
EXTT15=
EXTT16=
EXTT17=
EXTT18=
EXTT19=
EXTT20=
PLAYORDER=
